
<svg xmlns="http://www.w3.org/2000/svg" width="1024" height="1024" viewBox="0 0 1024 1024">
  <path d="M599.882 747.956c-53.671 39.607-131.439 60.729-198.502 60.729-94.007 0-178.615-34.781-242.807-92.696-5.033-4.572-0.538-10.845 5.513-7.313 68.818 40.059 153.858 64.196 241.643 64.196 59.254 0 124.339-12.278 184.194-37.76 9.06-3.863 16.631 5.955 9.959 12.845z" fill="#ff9900"/>
  <path d="M625.311 718.873c-6.856-8.794-45.512-4.175-62.863-2.101-5.283.651-6.103-3.974-1.343-7.307 30.7-21.591 81.005-15.366 86.873-8.106 5.867 7.307-1.533 57.813-30.336 81.95-4.432 3.731-8.657 1.751-6.7-3.167 6.507-16.229 21.08-52.651 14.369-61.269z" fill="#ff9900"/>
  <path d="M566.724 390.854v-27.416c0-4.149 3.137-6.953 6.918-6.953h122.734c3.931 0 7.094 2.83 7.094 6.924v23.513c-.044 3.924-3.363 9.067-9.282 17.22l-63.607 90.848c23.634-.57 48.637 2.972 70.084 15.045 4.812 2.7 6.104 6.677 6.475 10.583v29.309c0 3.978-4.379 8.618-8.95 6.217-37.411-19.617-87.08-21.759-128.535.232-4.221 2.247-8.652-2.284-8.652-6.263v-27.862c0-4.414.088-11.958 4.519-18.695l73.635-105.487h-64.08c-3.957 0-7.094-2.77-7.094-6.949l-.259.734zm-395.623 154.47h-37.349c-3.552-.258-6.382-2.94-6.678-6.4l.029-194.598c0-3.861 3.246-6.953 7.256-6.953h34.791c3.659.146 6.597 2.982 6.885 6.524v25.438h.705c9.064-24.215 26.175-35.547 49.265-35.547 23.453 0 38.113 11.332 48.686 35.547 9.064-24.215 29.571-35.547 51.495-35.547 15.645 0 32.704 6.47 43.192 21 11.834 16.071 9.382 39.451 9.382 59.884l-.044 123.434c0 3.861-3.246 6.982-7.285 6.982h-37.32c-3.781-.258-6.824-3.285-6.824-6.982v-103.615c0-8.239.734-28.766-1.059-36.529-2.822-13.209-11.283-16.909-22.212-16.909-9.148 0-18.72 6.122-22.564 15.883-3.844 9.762-3.491 26.052-3.491 37.556v103.615c0 3.861-3.246 6.982-7.285 6.982h-37.32c-3.813-.258-6.824-3.285-6.824-6.982l-.044-103.615c0-21.825 3.579-53.972-23.595-53.972-27.526 0-26.468 31.25-26.468 53.972v103.615c0 3.861-3.246 6.982-7.285 6.982l.01-.792zm633.07-210.328v200.813c0 3.861-3.246 6.953-7.256 6.953h-37.407c-3.813-.258-6.883-3.343-6.883-6.982v-200.813c.322-3.694 3.608-6.577 7.402-6.577h34.909c3.636.175 6.581 2.964 6.869 6.606h-.634zm-219.599 107.996c0 14.724.369 26.991-7.05 40.082-6 10.866-15.557 17.569-26.175 17.569-14.531 0-23.009-11.068-23.009-27.429 0-32.234 28.952-38.122 56.234-38.122v7.9zm37.759 91.171c-2.47 2.212-6.06 2.358-8.852.905-12.433-10.338-14.677-15.131-21.501-24.952-20.543 20.951-35.113 27.224-61.757 27.224-31.527 0-56.059-19.413-56.059-58.362 0-30.384 16.44-51.037 39.859-61.2 20.249-8.956 48.598-10.544 70.214-13.036v-4.825c0-8.869.705-19.355-4.552-27.02-4.577-6.871-13.324-9.703-21.031-9.703-14.265 0-27.003 7.319-30.108 22.474-.636 3.343-3.138 6.606-6.502 6.782l-36.266-3.899c-3.052-.725-6.458-3.314-5.605-8.239 8.388-44.305 48.392-57.705 84.216-57.705 18.369 0 42.316 4.877 56.824 18.783 18.36 17.139 16.616 40.025 16.616 64.947v58.741c0 17.685 7.343 25.438 14.248 34.97 2.416 3.401 2.95 7.465-.51 10.016-7.685 6.4-21.354 18.333-28.87 25.012l-.366-.914zm-449.042-91.171c0 14.724.368 26.991-7.05 40.082-6 10.866-15.498 17.569-26.117 17.569-14.53 0-23.068-11.068-23.068-27.429 0-32.234 28.952-38.122 56.234-38.122v7.9h.001zm37.699 91.171c-2.47 2.212-6.06 2.358-8.852.905-12.432-10.338-14.618-15.131-21.501-24.952-20.543 20.951-35.054 27.224-61.698 27.224-31.527 0-56.059-19.413-56.059-58.362 0-30.384 16.382-51.037 39.8-61.2 20.249-8.956 48.598-10.544 70.214-13.036v-4.825c0-8.869.705-19.355-4.493-27.02-4.636-6.871-13.383-9.703-21.09-9.703-14.265 0-26.944 7.319-30.108 22.474-.635 3.343-3.079 6.606-6.443 6.782l-36.325-3.899c-3.052-.725-6.399-3.314-5.605-8.239 8.388-44.305 48.392-57.705 84.216-57.705 18.369 0 42.316 4.877 56.824 18.783 18.36 17.139 16.616 40.025 16.616 64.947v58.741c0 17.685 7.343 25.438 14.248 34.97 2.475 3.401 3.009 7.465-.451 10.016-7.685 6.4-21.354 18.333-28.87 25.012l-.424-.914z" fill="#221f1f"/>
</svg>
