
<svg xmlns="http://www.w3.org/2000/svg" viewBox="0 0 1000 562.5" width="1000" height="562.5">
  <path d="M500 412.97c29.17 0 52.73-23.55 52.73-52.73S529.17 307.51 500 307.51s-52.73 23.55-52.73 52.73 23.55 52.73 52.73 52.73m0-142.86c49.76 0 90.12 40.36 90.12 90.12S549.76 450.35 500 450.35s-90.12-40.36-90.12-90.12S450.24 270.11 500 270.11" fill="#1F222A"/>
  <path d="M871.63 220.5c14.23 0 20.78 6.97 20.78 21.2v84.27c-7.4.85-15.94 1.7-25.1 1.7-23.98 0-33.56-7.83-33.56-27.33 0-20.78 14.23-28.6 42.69-28.6h8.25v-12.95c0-9.95-3.9-12.95-15.51-12.95-10.8 0-23.97 3-36.92 8.67v-24.61c12.53-6.12 26.33-9.4 44.37-9.4zm12.94 79.67v-14.66h-7.4c-12.1 0-17.09 4.27-17.09 13.39 0 8.68 3.9 11.25 13.86 11.25 3.86 0 7.4-.42 10.63-.98zm-118.03-79.67c14.22 0 20.78 6.97 20.78 21.2v84.27c-7.4.85-15.95 1.7-25.1 1.7-23.98 0-33.56-7.83-33.56-27.33 0-20.78 14.23-28.6 42.7-28.6h8.25v-12.95c0-9.95-3.9-12.95-15.52-12.95-10.8 0-23.97 3-36.92 8.67v-24.61c12.53-6.12 26.33-9.4 44.37-9.4zm12.95 79.67v-14.66h-7.4c-12.1 0-17.1 4.27-17.1 13.39 0 8.68 3.9 11.25 13.87 11.25 3.86 0 7.4-.42 10.63-.98zm-130.5-15.71V220.5h31.77v79.3c0 9.95 3.45 12.95 11.14 12.95 3.87 0 7.74-.85 10.37-1.7v-90.55h31.83v105.34c-12.52 6.12-26.75 9.12-44.78 9.12-27.87 0-40.3-14.23-40.33-41.1zm-33.25-31.57h-19.17v50.94c0 6.12 2.6 9.12 8.7 9.12 3.55 0 7.43-.85 11.23-2.13v23.32c-6.92 2.76-16.8 3.9-23.95 3.9-20.45 0-28.9-11.23-28.9-31.02v-54.13h-14.51v-25.5h14.5v-10.37l32.93-9.68v20.05h19.17zm-132.89-32.4h31.34v47.97c3.86-2.02 9.12-3.17 15.2-3.17 24.4 0 36.06 14.23 36.06 41.1v1.7c0 27.75-17.26 44.37-46.7 44.37-17.66 0-34.28-3.45-46.7-9.12V214.82zm31.67 105.06c2.59 1.3 5.98 1.7 9.85 1.7 10.8 0 16.36-6.12 16.36-17.37 0-12.1-4.27-18.06-14.22-18.06-5.13 0-8.97 1.28-11.99 2.56zm-155.2 15.48v-86.65h31.77v79.3c0 9.95 3.45 12.95 11.14 12.95 3.86 0 7.74-.85 10.38-1.7v-90.55h31.83v105.34c-12.52 6.12-26.75 9.12-44.78 9.12-27.87 0-40.33-14.23-40.33-41.1v-1.7h-.01zm-74.22 29.1l1.75-24.67c16.05 1.35 21.6-.8 21.6-14.88v-76.2h31.85v82.69c0 26.02-12.1 34.7-45.22 34.7-3.93 0-7.38-.3-9.98-1.64zm23.35-145.55c0-9.54 8.25-17.37 18.22-17.37 10.38 0 18.22 7.83 18.22 17.37s-7.84 17.37-18.22 17.37c-9.97 0-18.22-7.83-18.22-17.37zm-76.56 64.1v-25.5h51.38v25.5zm-8.31 81.45V214.82h31.86v150.09z" fill="#1F222A"/>
  <path d="M499.97 93.04c123.2 0 223.2 100 223.2 223.2s-100 223.2-223.2 223.2-223.2-100-223.2-223.2 100-223.2 223.2-223.2m0-34.24c-142.3 0-257.45 115.15-257.45 257.45s115.15 257.45 257.45 257.45 257.45-115.15 257.45-257.45S642.27 58.8 499.97 58.8" fill="#0063E5"/>
</svg>
