
<svg xmlns="http://www.w3.org/2000/svg" viewBox="0 0 576 512" width="576" height="512">
  <path d="M338.1 57.1c-8.8 0-17 4-22.3 11-3.8 4.8-9.5 12.2-15.8 20.3C290.8 75.9 276.4 66 260.1 66c-21.7 0-39.5 17.7-39.5 39.5 0 22.5 23.5 39.5 45.9 39.5 4.9 0 9.7-1 14.3-3.1 16.4-7.5 26.6-9.4 37.9-9.4 13.6 0 26.5 3.9 37.4 11.1 1.8-8.3 6.8-18.2 27.4-18.2 31.7 0 39.1 33.2 39.1 35.6 0 1.2-3.2-1.2-3.7-1.8l-19.1-15.8c-1.3-1-2.8-1.6-4.3-1.6-3.3 0-6.5 2.8-7.5 5.9-1.2 3.8-1.9 9.2-1.9 15.2 0 28.2 6.3 71.6 40.8 71.6 39.9 0 30-72.4 28.7-79.6-.9-4.3-3.5-7.3-7.8-8.8-4.4-1.5-10.8-2.5-18.9-2.5-29.7 0-46.1 11.2-56.3 19.3 3.8-7.5 6.4-15.7 6.4-24.3 0-15-7.1-29-20.7-38.2-10.9-7.1-24.9-11.1-39.7-11.1zm-195.8 52.3c-9.7 0-14.7-4.9-14.7-8.8 0-2.4 1.4-4.9 4.2-6.9 3.3-2.4 8.1-3.8 13.2-3.8 1.5 0 3.2.1 4.9.4 7.8 1.3 14.8 2 21.1 2 5.7 0 10.8-.6 15.5-1.9-4.5 11.8-25.2 19-44.2 19zm216.2 154c-13.9 0-22.1-2.6-32.6-6-9.3-3-19.8-6.4-36.9-6.4-20.8 0-32.6 8.3-43.6 15.9-7.6 5.3-15.5 10.8-26.2 13.2-12.2 2.8-18.2-2.6-18.4-2.8-.3-.3-.6-.6-.6-1.2 0-1 .9-1.6 1.3-1.7 40.9-12.5 48.1-14.9 48.8-15.1 1.7-.5 2.7-2.4 2.2-4.2-.5-1.8-2.4-2.8-4.2-2.3-.4.1-38.9 11.7-49.6 15.1l-1.2.4c-4.6 1.4-14.4 3-17.2-5.4-.5-1.5-.6-2.9-.6-4 6-1 9.2-2.6 10.7-5 1.9-2.9 1.3-6.9-1.8-11.8-2.5-3.8-2.2-7.3-1.5-9.3 1-2.7 3.6-4.5 7.2-5 3.3-.4 6 .3 7.8 2.2 2.1 2.2 2.4 5.5.8 9.5-.4.9-.1 1.8.5 2.4.6.6 1.4.9 2.4.6 7.9-2.4 13.2-1.8 16.8 1.7 5 5 2.9 13.6 2.8 13.7-.2.6-.1 1.1.2 1.6.3.5.8.8 1.4.9 12.2 1.9 27.5-.7 33.6-2.3 7.2-1.9 30.7-8.1 34.5-9.1 3.8-1 7.8.4 10 3.5 2.2 3.1 2.4 7.4.4 11-1.2 2.2-2.8 3.8-5 5.1.5-8.9-1.7-16.1-6.4-21.1-17.7-18.8-52.5.5-55.5 2.1-.8.4-1.3 1.3-1.3 2.2 0 .9.5 1.7 1.3 2.1.1.1 13.2 6.6 28.8 6.6 16.3 0 29.3-7.2 34.9-19.2.9 2 1.4 4.2 1.6 6.7.7 10.1-8.2 16.5-15.7 16.5-.5 0-1 0-1.5-.1-.8-.1-1.7.2-2.2.8-.6.6-.8 1.4-.7 2.2.4 2.3 2.4 4.3 5.4 5.3 4.6 1.6 9.3 1.8 12.7 1.8 22.9 0 37.3-16.9 37.6-19.6 0-.1 0-.2.1-.3 0 3.5.8 9.8 8.3 15.7 4.9 3.8 10.9 5.8 17.8 5.8 5.3 0 11-1 16.9-3.4 4.5-1.8 5.7-3.5 5.7-4.3 0-2.4-2.8-2.8-5.6-2.8-.7 0-1.4 0-2.1.1-1.9.1-3.8.2-5.7.2-4.9 0-8.3-.7-10.5-2.2-3.8-2.6-4.6-7.2-4.5-8.9 2 .4 4.1.6 6.2.6 10.4 0 20.1-4.8 26.9-12.8 4.8-5.7 8.1-12.8 8.1-20.6 0-2.3-.3-4.5-.8-6.7 7.8-.1 13.1-1.8 15.9-4.8 3.2-3.5 2.9-8.5 2.9-8.5-18 2.5-22.7-1.4-26.9-4.8-9.9-8.1-23.6-12.5-38.7-12.5-14.9 0-29.4 5-41.6 14.4-8.5 6.6-15.6 15.3-20.8 25.4-11.4 22.4-9.6 47.1 4.6 61.4 3.9 3.9 8.7 7 14.2 9.1-1.5 1.1-3.1 2.1-4.8 3-11.6 6.3-27.5 10.3-44.1 11.4-11.9.8-18.5-3.6-18.8-3.8-.3-.3-.6-.6-.6-1.2 0-1 .9-1.6 1.3-1.7 40.9-12.5 48.1-14.9 48.8-15.1 1.7-.5 2.7-2.4 2.2-4.2-.5-1.8-2.4-2.8-4.2-2.3-.4.1-38.9 11.7-49.6 15.1l-1.2.4c-4.6 1.4-14.4 3-17.2-5.4-.5-1.5-.6-2.9-.6-4 6-1 9.2-2.6 10.7-5 1.9-2.9 1.3-6.9-1.8-11.8-2.5-3.8-2.2-7.3-1.5-9.3 1-2.7 3.6-4.5 7.2-5 3.3-.4 6 .3 7.8 2.2 2.1 2.2 2.4 5.5.8 9.5-.4.9-.1 1.8.5 2.4.6.6 1.4.9 2.4.6 7.9-2.4 13.2-1.8 16.8 1.7 5 5 2.9 13.6 2.8 13.7-.2.6-.1 1.1.2 1.6.3.5.8.8 1.4.9 12.2 1.9 27.5-.7 33.6-2.3 7.2-1.9 30.7-8.1 34.5-9.1 3.8-1 7.8.4 10 3.5 2.2 3.1 2.4 7.4.4 11-1.2 2.2-2.8 3.8-5 5.1.5-8.9-1.7-16.1-6.4-21.1-17.7-18.8-52.5.5-55.5 2.1-.8.4-1.3 1.3-1.3 2.2 0 .9.5 1.7 1.3 2.1.1.1 13.2 6.6 28.8 6.6 16.3 0 29.3-7.2 34.9-19.2.9 2 1.4 4.2 1.6 6.7.7 10.1-8.2 16.5-15.7 16.5-.5 0-1 0-1.5-.1-.8-.1-1.7.2-2.2.8-.6.6-.8 1.4-.7 2.2.4 2.3 2.4 4.3 5.4 5.3 4.6 1.6 9.3 1.8 12.7 1.8 22.9 0 37.3-16.9 37.6-19.6 0-.1 0-.2.1-.3 0 3.5.8 9.8 8.3 15.7 4.9 3.8 10.9 5.8 17.8 5.8 5.3 0 11-1 16.9-3.4 4.5-1.8 5.7-3.5 5.7-4.3 0-2.4-2.8-2.8-5.6-2.8-.7 0-1.4 0-2.1.1-1.9.1-3.8.2-5.7.2-4.9 0-8.3-.7-10.5-2.2-3.8-2.6-4.6-7.2-4.5-8.9 2 .4 4.1.6 6.2.6 10.4 0 20.1-4.8 26.9-12.8 4.8-5.7 8.1-12.8 8.1-20.6 0-2.3-.3-4.5-.8-6.7 7.8-.1 13.1-1.8 15.9-4.8 3.2-3.5 2.9-8.5 2.9-8.5-13.2 1.8-19-4.6-22.7-7.8-4.2-3.6-9.4-5.3-15.7-5.3z" fill="#1021DF"/>
</svg>
