
<svg xmlns="http://www.w3.org/2000/svg" viewBox="0 0 512 512" width="512" height="512">
  <path d="M459.39 151.46H346.48v63.7h112.91v-63.7z" fill="#1ce783"/>
  <path d="M346.48 309.27V235.3h-43.64c.15 7.57.17 15.17.1 22.79-.13 12.34-.66 24.76-1.69 37.28-1.01 12.08-2.55 24.15-4.74 35.99-2.07 11.16-4.67 22.09-7.95 32.58-2.17 6.95-4.67 13.68-7.54 20.13-1.33 3-2.75 5.92-4.33 8.73 22.7-1.47 87.84-8.11 112.94-82.77-14.14-.01-29.13-.76-43.15-.76z" fill="#1ce783"/>
  <path d="M339.24 151.46h-51.52v63.7h51.52v-63.7z" fill="#1ce783"/>
  <path d="M235.42 309.27V215.16h-50.64v94.11h50.64z" fill="#1ce783"/>
  <path d="M235.42 151.46h-50.64v43.56h50.64v-43.56z" fill="#1ce783"/>
  <path d="M174.5 151.46h-50.63v157.81h50.63V151.46z" fill="#1ce783"/>
  <path d="M113.6 309.27V215.16H62.96v94.11H113.6z" fill="#1ce783"/>
  <path d="M113.6 151.46H62.96v43.56H113.6v-43.56z" fill="#1ce783"/>
</svg>
