
<svg xmlns="http://www.w3.org/2000/svg" viewBox="0 0 512 512" width="512" height="512">
  <path d="M512 256C512 114.615 397.385 0 256 0S0 114.615 0 256s114.615 256 256 256 256-114.615 256-256z" fill="#01D0FF"/>
  <path d="M339.826 246.055c-1.362-3.32-5.249-4.8-8.609-3.295l-95.742 42.848L140.32 244.167a6.833 6.833 0 0 0-8.582 3.266l-18.167 40.287a6.634 6.634 0 0 0 3.266 8.824l95.742 41.458a6.833 6.833 0 0 0 5.315 0l95.742-41.458c3.535-1.522 5.029-5.562 3.294-8.824l-18.14-40.287 103.758 45.02c.567.242 1.147.46 1.74.652v-66.57l-64.462-28.48z" fill="#0023FF"/>
</svg>
