
<svg xmlns="http://www.w3.org/2000/svg" viewBox="0 0 1024 276.742" width="1024" height="276.742">
  <path d="M140.803 258.904c-15.404 2.705-31.079 3.516-47.294 5.676L44.051 119.724v151.073C28.647 272.418 14.594 274.58 0 276.742V0h41.08l56.212 157.021V0h43.511zm85.131-157.558c16.757 0 42.431-.811 57.835-.811v43.24c-19.189 0-41.619 0-57.835.811v64.322c25.405-1.621 50.809-3.785 76.482-4.596v41.617l-119.724 9.461V0h119.724v43.241h-76.482zM448.854 17.435c-17.577 0-37.624 0-49.463 7.568-11.849 7.568-17.121 19.55-17.121 35.397 0 21.909 17.568 34.213 40.826 39.674l20.418 4.607c10.234 2.316 19.193 7.567 19.193 17.803 0 11.849-10.233 15.634-22.936 15.634-18.322 0-32.835-6.763-41.075-9.915v40.826c16.757 5.257 34.213 7.568 52.63 7.568 18.317 0 38.752-2.316 49.458-9.883 13.371-8.373 19.198-21.909 19.198-40.042 0-22.701-18.394-35.353-39.673-40.025l-22.711-4.662c-8.757-1.526-17.57-4.596-17.57-14.45 0-9.883 8.813-14.485 20.662-14.485 17.571 0 29.415 6.763 36.172 9.079v-39.879c-14.435-3.785-28.876-5.676-44.308-5.676zM614.27 125.418c0-14.435 3.244-26.779 9.084-35.158 5.836-8.38 14.179-12.563 25.031-12.563 10.855 0 18.891 4.183 24.432 12.563 5.533 8.379 8.301 20.723 8.301 35.158 0 14.435-2.768 26.768-8.301 35.158-5.541 8.379-13.577 12.563-24.432 12.563-10.852 0-19.195-4.184-25.031-12.563-5.84-8.39-9.084-20.723-9.084-35.158zm93.318 0c0-28.27-7.862-50.39-23.602-66.334-15.748-15.953-37.352-23.92-64.842-23.92-27.49 0-49.096 7.967-64.844 23.92-15.74 15.944-23.602 38.064-23.602 66.334 0 28.271 7.861 50.381 23.602 66.334 15.748 15.943 37.354 23.92 64.844 23.92 27.49 0 49.094-7.977 64.842-23.92 15.74-15.953 23.602-38.063 23.602-66.334zm110.427 86.413c-13.577 11.541-33.826 17.319-60.742 17.319-17.963 0-36.14-3.244-54.476-9.718v-40.041c18.338 10.232 38.669 17.801 55.642 17.801 8.301 0 14.649-1.621 18.656-4.855 4.2-3.244 6.225-7.971 6.225-14.22 0-5.69-2.025-10.531-6.073-14.526-4.048-3.996-12.646-9.109-25.803-15.328-14.727-6.894-26.027-14.083-33.908-21.587-8.088-7.568-12.131-17.319-12.131-29.346 0-14.022 5.228-24.962 15.699-32.996 10.462-8.025 25.112-12.042 43.948-12.042 18.835 0 32.913 2.633 42.23 7.893v39.04c-9.32-7.578-23.644-11.371-42.986-11.371-7.699 0-13.577 1.621-17.571 4.855-4.048 3.244-6.073 7.363-6.073 12.331 0 5.39 2.179 10.072 6.529 14.072 4.042 3.856 13.068 9.189 27.056 15.999 13.973 6.601 24.527 13.737 31.656 21.396 7.123 7.659 10.684 16.419 10.684 26.263.005 15.647-5.223 27.2-15.562 34.586z" fill="#db202c"/>
</svg>
