
<svg xmlns="http://www.w3.org/2000/svg" viewBox="0 0 512 512" width="512" height="512">
  <path d="M256 0C114.615 0 0 114.615 0 256s114.615 256 256 256 256-114.615 256-256S397.385 0 256 0z" fill="#0064FF"/>
  <path d="M319.97 204.96h-59.94v25.6h19.55v76.8h20.77v-76.8h19.62v-25.6zm-147.78 0v102.4h20.84v-34.56h8.32c18.33 0 30.72-10.75 30.72-34.05 0-21.76-11.33-33.79-28.16-33.79h-31.72zm20.84 25.6h7.68c7.04 0 10.24 4.61 10.24 12.8 0 7.68-3.2 12.29-9.73 12.29h-8.19v-25.09z" fill="#FFFFFF"/>
</svg>
