
<svg xmlns="http://www.w3.org/2000/svg" width="512" height="512" viewBox="0 0 512 512">
  <path d="M447.4 153.6H325.9V82.2c0-4.4-3.6-8-8-8H68c-4.4 0-8 3.6-8 8v293.6c0 4.4 3.6 8 8 8h73.9c4.4 0 8-3.6 8-8 0-17.7 14.3-32 32-32h153.6c17.7 0 32 14.3 32 32 0 4.4 3.6 8 8 8h73.9c4.4 0 8-3.6 8-8V161.6c-.1-4.5-3.7-8-8-8z" fill="#00A8E1"/>
  <path d="M432 362.9c-4.5-8-15.5-18.9-32-18.9-18.1 0-32 14.3-32 32 0 15.1 10.4 27.9 24.4 31.3 4.3 1 8.7-2.2 8.7-6.7 0-3.1-2.1-5.8-5.1-6.6-6.8-1.9-11.9-8.1-11.9-15.4 0-8.8 7.2-16 16-16 8.9 0 16 7.2 16 16 0 5.5-2.8 10.3-7 13.2-2.5 1.7-3.1 5.1-1.4 7.6.3.4.6.7 1 1 3.3 2.3 7.9 1.4 10.2-1.9 5.8-8.2 9.3-18.2 9.3-29 0-3-1.2-5.8-3.1-7.9-4.6-5.2 3.8-12.7 8.9-7.7 4.4 4.3 7.1 10.5 7.1 17.3 0 14.8-6.5 28-16.9 37.1-2.1 1.9-2.3 5.2-.4 7.3 2.4 2.7 6.8 2.1 8.5-.9 11.3-18.1 11.3-48.1-15.3-51.8z" fill="#FF9900"/>
  <path d="M383.9 194.6h-33.4c-4.4 0-8 3.6-8 8v32c0 4.4 3.6 8 8 8h33.4c4.4 0 8-3.6 8-8v-32c0-4.4-3.6-8-8-8zm-137.4-120h-96c-4.4 0-8 3.6-8 8v32c0 4.4 3.6 8 8 8h96c4.4 0 8-3.6 8-8v-32c0-4.5-3.6-8-8-8zm32 64h-160c-4.4 0-8 3.6-8 8v32c0 4.4 3.6 8 8 8h160c4.4 0 8-3.6 8-8v-32c0-4.4-3.6-8-8-8zm0 64h-160c-4.4 0-8 3.6-8 8v32c0 4.4 3.6 8 8 8h160c4.4 0 8-3.6 8-8v-32c0-4.4-3.6-8-8-8z" fill="#FFFFFF"/>
</svg>
